<svg width="314" height="148" viewBox="0 0 314 148" fill="none" xmlns="http://www.w3.org/2000/svg">
<path d="M97 69.7638C97 95.9637 113.8 118.164 137 126.364V13.1638C113.8 21.3638 97 43.5638 97 69.7638Z" fill="#75A843" fill-opacity="0.3"/>
<path d="M217 69.7638C217 43.5638 200.2 21.3638 177 13.1638V126.364C200.4 118.164 217 95.9637 217 69.7638" fill="#ED4C5C" fill-opacity="0.3"/>
<path d="M137 126.364C143.2 128.564 150 129.764 157 129.764C164 129.764 170.8 128.564 177 126.364V13.1638C170.8 10.9638 164 9.76379 157 9.76379C150 9.76379 143.2 10.9638 137 13.1638V126.364" fill="white" fill-opacity="0.3"/>
<line y1="-0.5" x2="300.001" y2="-0.5" transform="matrix(0.999997 -0.0023333 0.0107138 0.999943 7 136.7)" stroke="white"/>
<line y1="-0.5" x2="300.001" y2="-0.5" transform="matrix(0.999997 -0.0023333 0.0107138 0.999943 7 132.7)" stroke="white"/>
<path d="M31.809 102.252C31.809 103.332 31.525 104.26 30.957 105.036C30.397 105.804 29.621 106.332 28.629 106.62C28.989 106.74 29.305 106.984 29.577 107.352C29.849 107.712 30.069 108.108 30.237 108.54L31.521 111.876C31.721 112.412 31.889 112.792 32.025 113.016C32.169 113.24 32.333 113.428 32.517 113.58C32.405 113.78 32.229 113.924 31.989 114.012C31.749 114.1 31.533 114.144 31.341 114.144C30.997 114.144 30.741 114.048 30.573 113.856C30.413 113.656 30.261 113.372 30.117 113.004L28.689 109.272C28.449 108.632 28.141 108.1 27.765 107.676C27.397 107.244 26.805 107.028 25.989 107.028H23.397V114C23.165 114.048 22.873 114.072 22.521 114.072C22.185 114.072 21.913 114.048 21.705 114V97.752L21.849 97.608C22.673 97.6 23.485 97.588 24.285 97.572C25.093 97.548 25.873 97.536 26.625 97.536C28.297 97.536 29.577 97.964 30.465 98.82C31.361 99.668 31.809 100.812 31.809 102.252ZM23.397 98.952V105.588C23.917 105.572 24.465 105.56 25.041 105.552C25.617 105.544 26.149 105.54 26.637 105.54C27.533 105.54 28.225 105.376 28.713 105.048C29.201 104.712 29.537 104.292 29.721 103.788C29.913 103.284 30.009 102.772 30.009 102.252C30.009 101.724 29.913 101.212 29.721 100.716C29.537 100.212 29.201 99.796 28.713 99.468C28.225 99.14 27.533 98.976 26.637 98.976C26.365 98.976 26.029 98.976 25.629 98.976C25.237 98.976 24.841 98.976 24.441 98.976C24.041 98.968 23.693 98.96 23.397 98.952ZM46.592 112.56C46.592 113.112 46.504 113.492 46.328 113.7C46.16 113.9 45.876 114 45.476 114H38.912C38.616 114 38.38 113.908 38.204 113.724C38.036 113.532 37.952 113.268 37.952 112.932V101.112L38.072 100.992H46.232C46.256 101.112 46.268 101.228 46.268 101.34C46.276 101.452 46.28 101.556 46.28 101.652C46.28 101.748 46.272 101.868 46.256 102.012C46.24 102.148 46.208 102.28 46.16 102.408H40.868C40.692 102.408 40.488 102.408 40.256 102.408C40.032 102.408 39.804 102.404 39.572 102.396C39.572 102.548 39.576 102.728 39.584 102.936C39.592 103.144 39.596 103.368 39.596 103.608V106.68C39.828 106.672 40.056 106.668 40.28 106.668C40.504 106.668 40.7 106.668 40.868 106.668H45.104C45.144 106.788 45.164 106.916 45.164 107.052C45.172 107.188 45.176 107.296 45.176 107.376C45.176 107.472 45.172 107.584 45.164 107.712C45.164 107.84 45.144 107.964 45.104 108.084H40.868C40.7 108.084 40.504 108.084 40.28 108.084C40.056 108.084 39.828 108.08 39.596 108.072V111.78C39.596 111.924 39.592 112.08 39.584 112.248C39.576 112.416 39.572 112.528 39.572 112.584C39.908 112.568 40.344 112.56 40.88 112.56H46.592ZM50.9606 112.872C50.9686 112.624 51.0446 112.38 51.1886 112.14C51.3326 111.892 51.5006 111.704 51.6926 111.576C52.2126 111.888 52.8166 112.192 53.5046 112.488C54.2006 112.776 54.9966 112.912 55.8926 112.896C56.4206 112.888 56.9126 112.796 57.3686 112.62C57.8326 112.436 58.2046 112.184 58.4846 111.864C58.7726 111.536 58.9166 111.156 58.9166 110.724C58.9166 110.212 58.7206 109.76 58.3286 109.368C57.9446 108.968 57.3966 108.652 56.6846 108.42L54.2366 107.532C53.2766 107.22 52.5486 106.808 52.0526 106.296C51.5646 105.776 51.3206 105.128 51.3206 104.352C51.3206 103.704 51.4886 103.108 51.8246 102.564C52.1606 102.02 52.6606 101.58 53.3246 101.244C53.9886 100.9 54.8006 100.72 55.7606 100.704C56.5446 100.696 57.3166 100.792 58.0766 100.992C58.8446 101.192 59.4926 101.416 60.0206 101.664C60.0206 102.216 59.8166 102.656 59.4086 102.984C58.8486 102.72 58.2326 102.512 57.5606 102.36C56.8966 102.208 56.2806 102.136 55.7126 102.144C54.8966 102.16 54.2486 102.356 53.7686 102.732C53.2966 103.108 53.0606 103.6 53.0606 104.208C53.0606 104.688 53.2286 105.056 53.5646 105.312C53.9006 105.56 54.4166 105.804 55.1126 106.044L57.4406 106.932C58.3126 107.236 59.0686 107.676 59.7086 108.252C60.3566 108.828 60.6806 109.552 60.6806 110.424C60.6806 111.528 60.2566 112.444 59.4086 113.172C58.5686 113.892 57.3806 114.264 55.8446 114.288C54.7486 114.296 53.7886 114.148 52.9646 113.844C52.1406 113.532 51.4726 113.208 50.9606 112.872ZM67.8317 103.8C67.8317 103.552 67.8357 103.32 67.8437 103.104C67.8517 102.888 67.8557 102.648 67.8557 102.384C67.7117 102.384 67.5117 102.388 67.2557 102.396C66.9997 102.404 66.7997 102.408 66.6557 102.408H63.9317C63.8837 102.176 63.8597 101.94 63.8597 101.7C63.8597 101.468 63.8837 101.232 63.9317 100.992H73.3157C73.3957 101.208 73.4357 101.428 73.4357 101.652C73.4357 101.9 73.3717 102.088 73.2437 102.216C73.1157 102.344 72.8557 102.408 72.4637 102.408H70.6757C70.5397 102.408 70.3357 102.404 70.0637 102.396C69.7997 102.388 69.6037 102.384 69.4757 102.384C69.4757 102.648 69.4797 102.888 69.4877 103.104C69.4957 103.32 69.4997 103.552 69.4997 103.8V114C69.2597 114.048 68.9837 114.072 68.6717 114.072C68.3437 114.072 68.0637 114.048 67.8317 114V103.8ZM79.7259 110.7C79.6779 110.7 79.5459 110.7 79.3299 110.7C79.1219 110.692 78.8939 110.688 78.6459 110.688C78.4059 110.68 78.2259 110.676 78.1059 110.676L76.8699 114.024C76.6539 114.072 76.4099 114.096 76.1379 114.096C75.8339 114.096 75.5739 114.056 75.3579 113.976L75.3099 113.904L80.1699 100.992C80.2499 100.968 80.3979 100.948 80.6139 100.932C80.8299 100.908 81.0099 100.896 81.1539 100.896C81.2819 100.896 81.4499 100.908 81.6579 100.932C81.8659 100.948 82.0019 100.968 82.0659 100.992L86.9499 113.928C86.6859 114.072 86.3539 114.144 85.9539 114.144C85.6819 114.144 85.4819 114.084 85.3539 113.964C85.2259 113.844 85.0979 113.612 84.9699 113.268L84.0099 110.676C83.9059 110.676 83.7419 110.68 83.5179 110.688C83.2939 110.688 83.0819 110.692 82.8819 110.7C82.6819 110.7 82.5619 110.7 82.5219 110.7H79.7259ZM80.1099 105.24L78.6219 109.284C78.7899 109.276 79.0379 109.272 79.3659 109.272C79.6939 109.264 79.8899 109.26 79.9539 109.26H82.3179C82.3739 109.26 82.5419 109.264 82.8219 109.272C83.1099 109.272 83.3339 109.276 83.4939 109.284L82.2819 105.996C82.1699 105.7 82.0379 105.344 81.8859 104.928C81.7419 104.504 81.5979 104.08 81.4539 103.656C81.3099 103.232 81.1859 102.856 81.0819 102.528H80.9859C80.8579 103 80.7059 103.5 80.5299 104.028C80.3539 104.556 80.2139 104.96 80.1099 105.24ZM101.791 109.524C101.791 111.1 101.311 112.288 100.351 113.088C99.3905 113.888 98.1385 114.288 96.5945 114.288C95.0665 114.288 93.8185 113.888 92.8505 113.088C91.8825 112.288 91.3985 111.1 91.3985 109.524V101.04L91.5185 100.92H92.1785C92.5385 100.92 92.7745 101.012 92.8865 101.196C93.0065 101.372 93.0665 101.644 93.0665 102.012V109.524C93.0665 110.628 93.3745 111.472 93.9905 112.056C94.6065 112.632 95.4745 112.92 96.5945 112.92C97.7225 112.92 98.5905 112.632 99.1985 112.056C99.8145 111.472 100.123 110.628 100.123 109.524V100.992C100.331 100.944 100.595 100.92 100.915 100.92C101.259 100.92 101.551 100.944 101.791 100.992V109.524ZM117.537 104.712C117.537 105.536 117.273 106.26 116.745 106.884C116.217 107.5 115.537 107.912 114.705 108.12C115.089 108.272 115.389 108.48 115.605 108.744C115.821 109.008 116.009 109.32 116.169 109.68L117.249 112.092C117.393 112.404 117.537 112.696 117.681 112.968C117.833 113.232 117.985 113.444 118.137 113.604C118.017 113.78 117.853 113.912 117.645 114C117.437 114.08 117.233 114.12 117.033 114.12C116.705 114.12 116.461 114.028 116.301 113.844C116.141 113.66 115.989 113.404 115.845 113.076L114.597 110.232C114.381 109.728 114.109 109.324 113.781 109.02C113.461 108.716 112.937 108.564 112.209 108.564H110.073V114C109.833 114.048 109.549 114.072 109.221 114.072C108.885 114.072 108.613 114.048 108.405 114V101.112L108.525 100.992C109.285 100.968 110.013 100.952 110.709 100.944C111.405 100.928 112.117 100.92 112.845 100.92C114.349 100.92 115.505 101.26 116.313 101.94C117.129 102.62 117.537 103.544 117.537 104.712ZM110.073 102.276V107.208C110.569 107.2 111.053 107.192 111.525 107.184C112.005 107.176 112.433 107.172 112.809 107.172C113.593 107.172 114.201 107.044 114.633 106.788C115.065 106.524 115.361 106.204 115.521 105.828C115.689 105.444 115.773 105.072 115.773 104.712C115.773 104.336 115.689 103.964 115.521 103.596C115.361 103.22 115.065 102.912 114.633 102.672C114.201 102.424 113.593 102.3 112.809 102.3C112.457 102.3 112.013 102.3 111.477 102.3C110.941 102.292 110.473 102.284 110.073 102.276ZM126.207 110.7C126.159 110.7 126.027 110.7 125.811 110.7C125.603 110.692 125.375 110.688 125.127 110.688C124.887 110.68 124.707 110.676 124.587 110.676L123.351 114.024C123.135 114.072 122.891 114.096 122.619 114.096C122.315 114.096 122.055 114.056 121.839 113.976L121.791 113.904L126.651 100.992C126.731 100.968 126.879 100.948 127.095 100.932C127.311 100.908 127.491 100.896 127.635 100.896C127.763 100.896 127.931 100.908 128.139 100.932C128.347 100.948 128.483 100.968 128.547 100.992L133.431 113.928C133.167 114.072 132.835 114.144 132.435 114.144C132.163 114.144 131.963 114.084 131.835 113.964C131.707 113.844 131.579 113.612 131.451 113.268L130.491 110.676C130.387 110.676 130.223 110.68 129.999 110.688C129.775 110.688 129.563 110.692 129.363 110.7C129.163 110.7 129.043 110.7 129.003 110.7H126.207ZM126.591 105.24L125.103 109.284C125.271 109.276 125.519 109.272 125.847 109.272C126.175 109.264 126.371 109.26 126.435 109.26H128.799C128.855 109.26 129.023 109.264 129.303 109.272C129.591 109.272 129.815 109.276 129.975 109.284L128.763 105.996C128.651 105.7 128.519 105.344 128.367 104.928C128.223 104.504 128.079 104.08 127.935 103.656C127.791 103.232 127.667 102.856 127.563 102.528H127.467C127.339 103 127.187 103.5 127.011 104.028C126.835 104.556 126.695 104.96 126.591 105.24ZM141.59 105.636C141.318 105.204 141.062 104.784 140.822 104.376C140.582 103.968 140.35 103.556 140.126 103.14L140.018 103.152C140.042 103.536 140.062 103.988 140.078 104.508C140.102 105.028 140.118 105.536 140.126 106.032C140.134 106.52 140.138 106.92 140.138 107.232V114C139.834 114.048 139.558 114.072 139.31 114.072C139.062 114.072 138.798 114.048 138.518 114V100.992C138.654 100.968 138.814 100.952 138.998 100.944C139.182 100.928 139.35 100.92 139.502 100.92C139.886 100.92 140.21 100.944 140.474 100.992L145.67 109.416C145.934 109.848 146.186 110.28 146.426 110.712C146.666 111.136 146.898 111.552 147.122 111.96L147.254 111.948C147.222 111.58 147.19 111.132 147.158 110.604C147.134 110.076 147.11 109.556 147.086 109.044C147.07 108.524 147.062 108.104 147.062 107.784V101.988C147.062 101.628 147.114 101.36 147.218 101.184C147.322 101.008 147.558 100.92 147.926 100.92H148.562L148.682 101.04V114C148.402 114.048 148.074 114.072 147.698 114.072C147.314 114.072 146.994 114.048 146.738 114L141.59 105.636ZM157.583 103.8C157.583 103.552 157.587 103.32 157.595 103.104C157.603 102.888 157.607 102.648 157.607 102.384C157.463 102.384 157.263 102.388 157.007 102.396C156.751 102.404 156.551 102.408 156.407 102.408H153.683C153.635 102.176 153.611 101.94 153.611 101.7C153.611 101.468 153.635 101.232 153.683 100.992H163.067C163.147 101.208 163.187 101.428 163.187 101.652C163.187 101.9 163.123 102.088 162.995 102.216C162.867 102.344 162.607 102.408 162.215 102.408H160.427C160.291 102.408 160.087 102.404 159.815 102.396C159.551 102.388 159.355 102.384 159.227 102.384C159.227 102.648 159.231 102.888 159.239 103.104C159.247 103.32 159.251 103.552 159.251 103.8V114C159.011 114.048 158.735 114.072 158.423 114.072C158.095 114.072 157.815 114.048 157.583 114V103.8ZM174.793 108.42C174.745 108.212 174.721 107.96 174.721 107.664C174.721 107.368 174.745 107.1 174.793 106.86H180.217C180.265 107.1 180.289 107.368 180.289 107.664C180.289 107.96 180.265 108.212 180.217 108.42H174.793ZM203.887 102.636C203.887 104.316 203.399 105.592 202.423 106.464C201.447 107.336 200.183 107.772 198.631 107.772H195.667V114C195.427 114.048 195.135 114.072 194.791 114.072C194.455 114.072 194.183 114.048 193.975 114V97.752L194.119 97.608C194.943 97.6 195.711 97.588 196.423 97.572C197.143 97.548 197.879 97.536 198.631 97.536C199.647 97.536 200.551 97.728 201.343 98.112C202.135 98.488 202.755 99.056 203.203 99.816C203.659 100.576 203.887 101.516 203.887 102.636ZM195.667 98.952V106.332C196.171 106.332 196.723 106.332 197.323 106.332C197.931 106.332 198.395 106.332 198.715 106.332C199.611 106.332 200.299 106.14 200.779 105.756C201.267 105.364 201.603 104.884 201.787 104.316C201.971 103.748 202.063 103.188 202.063 102.636C202.063 102.076 201.971 101.516 201.787 100.956C201.603 100.388 201.267 99.916 200.779 99.54C200.299 99.164 199.611 98.976 198.715 98.976C198.307 98.976 197.807 98.976 197.215 98.976C196.631 98.976 196.115 98.968 195.667 98.952ZM209.334 100.992C209.542 100.944 209.814 100.92 210.15 100.92C210.478 100.92 210.762 100.944 211.002 100.992V114C210.762 114.048 210.478 114.072 210.15 114.072C209.814 114.072 209.542 114.048 209.334 114V100.992ZM222.755 104.46C222.979 104.148 223.235 103.82 223.523 103.476C223.819 103.124 224.131 102.752 224.459 102.36L224.387 102.312C224.251 102.336 224.023 102.356 223.703 102.372C223.391 102.388 223.051 102.4 222.683 102.408C222.315 102.416 221.975 102.424 221.663 102.432C221.351 102.432 221.131 102.432 221.003 102.432H217.379C217.339 102.248 217.319 102.06 217.319 101.868C217.319 101.596 217.363 101.304 217.451 100.992H225.959C226.063 101.36 226.131 101.616 226.163 101.76C226.203 101.904 226.223 102.02 226.223 102.108C226.223 102.332 226.135 102.568 225.959 102.816L220.319 110.436C220.079 110.764 219.803 111.116 219.491 111.492C219.187 111.868 218.895 112.232 218.615 112.584L218.663 112.656C219.135 112.608 219.563 112.576 219.947 112.56C220.331 112.544 220.659 112.536 220.931 112.536H223.619C224.819 112.536 225.687 112.432 226.223 112.224C226.263 112.368 226.299 112.504 226.331 112.632C226.363 112.76 226.379 112.9 226.379 113.052C226.379 113.348 226.287 113.58 226.103 113.748C225.919 113.916 225.595 114 225.131 114H217.067C216.963 113.632 216.895 113.38 216.863 113.244C216.839 113.108 216.827 112.996 216.827 112.908C216.827 112.796 216.847 112.672 216.887 112.536C216.927 112.392 216.995 112.248 217.091 112.104L222.755 104.46ZM236.85 104.46C237.074 104.148 237.33 103.82 237.618 103.476C237.914 103.124 238.226 102.752 238.554 102.36L238.482 102.312C238.346 102.336 238.118 102.356 237.798 102.372C237.486 102.388 237.146 102.4 236.778 102.408C236.41 102.416 236.07 102.424 235.758 102.432C235.446 102.432 235.226 102.432 235.098 102.432H231.474C231.434 102.248 231.414 102.06 231.414 101.868C231.414 101.596 231.458 101.304 231.546 100.992H240.054C240.158 101.36 240.226 101.616 240.258 101.76C240.298 101.904 240.318 102.02 240.318 102.108C240.318 102.332 240.23 102.568 240.054 102.816L234.414 110.436C234.174 110.764 233.898 111.116 233.586 111.492C233.282 111.868 232.99 112.232 232.71 112.584L232.758 112.656C233.23 112.608 233.658 112.576 234.042 112.56C234.426 112.544 234.754 112.536 235.026 112.536H237.714C238.914 112.536 239.782 112.432 240.318 112.224C240.358 112.368 240.394 112.504 240.426 112.632C240.458 112.76 240.474 112.9 240.474 113.052C240.474 113.348 240.382 113.58 240.198 113.748C240.014 113.916 239.69 114 239.226 114H231.162C231.058 113.632 230.99 113.38 230.958 113.244C230.934 113.108 230.922 112.996 230.922 112.908C230.922 112.796 230.942 112.672 230.982 112.536C231.022 112.392 231.09 112.248 231.186 112.104L236.85 104.46ZM254.773 112.56C254.773 113.112 254.685 113.492 254.509 113.7C254.341 113.9 254.057 114 253.657 114H247.093C246.797 114 246.561 113.908 246.385 113.724C246.217 113.532 246.133 113.268 246.133 112.932V101.112L246.253 100.992H254.413C254.437 101.112 254.449 101.228 254.449 101.34C254.457 101.452 254.461 101.556 254.461 101.652C254.461 101.748 254.453 101.868 254.437 102.012C254.421 102.148 254.389 102.28 254.341 102.408H249.049C248.873 102.408 248.669 102.408 248.437 102.408C248.213 102.408 247.985 102.404 247.753 102.396C247.753 102.548 247.757 102.728 247.765 102.936C247.773 103.144 247.777 103.368 247.777 103.608V106.68C248.009 106.672 248.237 106.668 248.461 106.668C248.685 106.668 248.881 106.668 249.049 106.668H253.285C253.325 106.788 253.345 106.916 253.345 107.052C253.353 107.188 253.357 107.296 253.357 107.376C253.357 107.472 253.353 107.584 253.345 107.712C253.345 107.84 253.325 107.964 253.285 108.084H249.049C248.881 108.084 248.685 108.084 248.461 108.084C248.237 108.084 248.009 108.08 247.777 108.072V111.78C247.777 111.924 247.773 112.08 247.765 112.248C247.757 112.416 247.753 112.528 247.753 112.584C248.089 112.568 248.525 112.56 249.061 112.56H254.773ZM269.642 104.712C269.642 105.536 269.378 106.26 268.85 106.884C268.322 107.5 267.642 107.912 266.81 108.12C267.194 108.272 267.494 108.48 267.71 108.744C267.926 109.008 268.114 109.32 268.274 109.68L269.354 112.092C269.498 112.404 269.642 112.696 269.786 112.968C269.938 113.232 270.09 113.444 270.242 113.604C270.122 113.78 269.958 113.912 269.75 114C269.542 114.08 269.338 114.12 269.138 114.12C268.81 114.12 268.566 114.028 268.406 113.844C268.246 113.66 268.094 113.404 267.95 113.076L266.702 110.232C266.486 109.728 266.214 109.324 265.886 109.02C265.566 108.716 265.042 108.564 264.314 108.564H262.178V114C261.938 114.048 261.654 114.072 261.326 114.072C260.99 114.072 260.718 114.048 260.51 114V101.112L260.63 100.992C261.39 100.968 262.118 100.952 262.814 100.944C263.51 100.928 264.222 100.92 264.95 100.92C266.454 100.92 267.61 101.26 268.418 101.94C269.234 102.62 269.642 103.544 269.642 104.712ZM262.178 102.276V107.208C262.674 107.2 263.158 107.192 263.63 107.184C264.11 107.176 264.538 107.172 264.914 107.172C265.698 107.172 266.306 107.044 266.738 106.788C267.17 106.524 267.466 106.204 267.626 105.828C267.794 105.444 267.878 105.072 267.878 104.712C267.878 104.336 267.794 103.964 267.626 103.596C267.466 103.22 267.17 102.912 266.738 102.672C266.306 102.424 265.698 102.3 264.914 102.3C264.562 102.3 264.118 102.3 263.582 102.3C263.046 102.292 262.578 102.284 262.178 102.276ZM275.756 100.992C275.964 100.944 276.236 100.92 276.572 100.92C276.9 100.92 277.184 100.944 277.424 100.992V114C277.184 114.048 276.9 114.072 276.572 114.072C276.236 114.072 275.964 114.048 275.756 114V100.992ZM287.017 110.7C286.969 110.7 286.837 110.7 286.621 110.7C286.413 110.692 286.185 110.688 285.937 110.688C285.697 110.68 285.517 110.676 285.397 110.676L284.161 114.024C283.945 114.072 283.701 114.096 283.429 114.096C283.125 114.096 282.865 114.056 282.649 113.976L282.601 113.904L287.461 100.992C287.541 100.968 287.689 100.948 287.905 100.932C288.121 100.908 288.301 100.896 288.445 100.896C288.573 100.896 288.741 100.908 288.949 100.932C289.157 100.948 289.293 100.968 289.357 100.992L294.241 113.928C293.977 114.072 293.645 114.144 293.245 114.144C292.973 114.144 292.773 114.084 292.645 113.964C292.517 113.844 292.389 113.612 292.261 113.268L291.301 110.676C291.197 110.676 291.033 110.68 290.809 110.688C290.585 110.688 290.373 110.692 290.173 110.7C289.973 110.7 289.853 110.7 289.813 110.7H287.017ZM287.401 105.24L285.913 109.284C286.081 109.276 286.329 109.272 286.657 109.272C286.985 109.264 287.181 109.26 287.245 109.26H289.609C289.665 109.26 289.833 109.264 290.113 109.272C290.401 109.272 290.625 109.276 290.785 109.284L289.573 105.996C289.461 105.7 289.329 105.344 289.177 104.928C289.033 104.504 288.889 104.08 288.745 103.656C288.601 103.232 288.477 102.856 288.373 102.528H288.277C288.149 103 287.997 103.5 287.821 104.028C287.645 104.556 287.505 104.96 287.401 105.24Z" fill="white"/>
<path d="M46.8414 51.75H50.2164C50.4977 51.75 50.7086 51.6914 50.8492 51.5742C51.0133 51.4336 51.1305 51.2578 51.2008 51.0469C51.2711 50.8359 51.3063 50.6016 51.3063 50.3438C51.3297 50.0625 51.3414 49.7812 51.3414 49.5V32.625C51.3414 32.0625 51.2594 31.6289 51.0953 31.3242C50.9547 31.0195 50.7086 30.7969 50.357 30.6562C50.0055 30.5156 49.5367 30.4336 48.9508 30.4102C48.3883 30.3867 47.6852 30.375 46.8414 30.375V51.75ZM51.3414 57.375C51.3414 57.0938 51.3297 56.8242 51.3063 56.5664C51.3063 56.2852 51.2711 56.0391 51.2008 55.8281C51.1305 55.6172 51.0133 55.4531 50.8492 55.3359C50.7086 55.1953 50.4977 55.125 50.2164 55.125H46.8414V77.625C47.357 77.625 47.8844 77.6133 48.4234 77.5898C48.9625 77.5664 49.443 77.4961 49.8648 77.3789C50.3102 77.2383 50.6617 77.0156 50.9195 76.7109C51.2008 76.4062 51.3414 75.9609 51.3414 75.375V57.375ZM55.8414 49.5C55.8414 50.625 55.5484 51.4922 54.9625 52.1016C54.3766 52.7109 53.4391 53.168 52.15 53.4727C53.4391 53.7305 54.3766 54.1641 54.9625 54.7734C55.5484 55.3828 55.8414 56.25 55.8414 57.375V75.375C55.8414 76.7812 55.5836 77.8711 55.068 78.6445C54.5523 79.3945 53.8727 79.9453 53.0289 80.2969C52.1852 80.6484 51.2242 80.8594 50.1461 80.9297C49.068 80.9766 47.9664 81 46.8414 81H42.3414V27H46.8414C48.2477 27 49.5016 27.0352 50.6031 27.1055C51.7281 27.1523 52.6773 27.3516 53.4508 27.7031C54.2242 28.0547 54.8102 28.6172 55.2086 29.3906C55.6305 30.1406 55.8414 31.2188 55.8414 32.625V49.5ZM76.5414 30.375H72.0414V50.625H76.5414V54H72.0414V77.625H76.5414V81H67.5414V27H76.5414V30.375ZM91.6164 27V77.625H96.1164V81H87.1164V27H91.6164ZM110.066 27V77.625H114.566V81H105.566V27H110.066ZM136.391 81H131.891L131.188 69.3281H128.059L127.391 81H122.891L127.391 27H131.891L136.391 81ZM130.942 65.6719L129.641 38.25L128.305 65.6719H130.942ZM167.596 27V81H163.096V27H167.596ZM191.671 27V30.375H187.171V81H182.671V30.375H178.171V27H191.671ZM214.059 81H209.559L208.855 69.3281H205.727L205.059 81H200.559L205.059 27H209.559L214.059 81ZM208.609 65.6719L207.309 38.25L205.973 65.6719H208.609ZM229.134 27V77.625H233.634V81H224.634V27H229.134ZM248.146 27V81H243.646V27H248.146ZM272.784 81H268.284L267.58 69.3281H264.452L263.784 81H259.284L263.784 27H268.284L272.784 81ZM267.334 65.6719L266.034 38.25L264.698 65.6719H267.334Z" fill="white"/>
<line y1="-0.5" x2="300.001" y2="-0.5" transform="matrix(0.999997 -0.0023333 0.0107138 0.999943 7 5.70001)" stroke="white"/>
<line y1="-0.5" x2="300.001" y2="-0.5" transform="matrix(0.999997 -0.0023333 0.0107138 0.999943 7 1.70001)" stroke="white"/>
</svg>
